<?xml version="1.0" encoding="UTF-8"?>
<svg width="142px" height="142px" viewBox="0 0 142 142" version="1.1" xmlns="http://www.w3.org/2000/svg" xmlns:xlink="http://www.w3.org/1999/xlink">
    <!-- Generator: Sketch 61.2 (89653) - https://sketch.com -->
    <title>filter</title>
    <desc>Created with Sketch.</desc>
    <g id="Page-1" stroke="none" stroke-width="1" fill="none" fill-rule="evenodd">
        <g id="filter" transform="translate(5.000000, -0.500000)" fill="#000000" fill-rule="nonzero">
            <g id="Group" transform="translate(0.901048, 0.908022)">
                <path d="M75.7302003,112.615634 L75.7302003,75.0009428 L76.9455047,72.1294501 C92.114299,57.4191661 103.585556,45.7739874 111.344394,37.2124665 C115.176854,32.983524 118.086539,29.5251266 120.060051,26.8608881 C121.763293,24.5615128 122.67348,22.9472735 122.748576,22.5077347 C123.191907,19.9128752 121.298566,17.1477979 115.143208,14.4276575 C105.929628,10.3560457 89.6871302,8 65.5989517,8 C40.8562021,8 24.4689462,10.0140183 15.6408642,13.6290774 C9.49039437,16.1476666 8.19282205,18.4923541 9.43214848,21.7646418 C11.581754,27.4404086 27.2833703,44.6583043 55.6030023,71.9886103 L56.8252969,74.8668655 L56.8252969,131.047343 C60.2552532,129.310009 63.4757383,127.113972 66.4930596,124.453639 C70.736021,120.712674 73.8020403,116.766729 75.7302003,112.615634 Z M83.7302003,113.468365 L83.4047359,115.048804 C81.0122019,120.611468 77.123112,125.746708 71.7837863,130.454323 C66.4862926,135.125056 60.6012336,138.602021 54.1499821,140.86626 L48.8252969,137.091978 L48.8252969,76.5643335 C20.0218368,48.7104957 4.69555809,31.8454592 1.95073924,24.5981054 C-0.956105125,16.9229433 2.72353887,10.2738994 12.6092362,6.22575166 C22.6295509,2.12247876 39.8993058,0 65.5989517,0 C90.7021504,0 107.947772,2.50155318 118.376848,7.1103101 C127.613637,11.1921788 131.762549,17.2513418 130.634312,23.8550125 C129.561811,30.1324581 114.62705,46.6777697 83.7302263,76.6928236 L83.7302003,113.468365 Z" id="Path"></path>
                <path d="M23.6026718,29.5391204 C22.1270401,28.7856768 21.5415911,26.9786542 22.2950348,25.5030226 C23.0484784,24.027391 24.8555009,23.441942 26.3311325,24.1953856 C35.876797,29.0693122 49.1681021,31.5445769 66.1914439,31.5445769 C83.1752853,31.5445769 95.9079965,29.0793215 104.357758,24.2611598 C105.797063,23.4404494 107.629168,23.9419198 108.449879,25.3812254 C109.270589,26.8205309 108.769119,28.6526358 107.329813,29.4733462 C97.8276229,34.8916163 84.1254397,37.5445769 66.1914439,37.5445769 C48.2969483,37.5445769 34.1052256,34.9016257 23.6026718,29.5391204 Z" id="Path-3"></path>
            </g>
        </g>
    </g>
</svg>