<?xml version="1.0" encoding="UTF-8"?>
<svg width="142px" height="142px" viewBox="0 0 142 142" version="1.1" xmlns="http://www.w3.org/2000/svg" xmlns:xlink="http://www.w3.org/1999/xlink">
    <!-- Generator: Sketch 61.2 (89653) - https://sketch.com -->
    <title>sort-ascending</title>
    <desc>Created with Sketch.</desc>
    <g id="Page-1" stroke="none" stroke-width="1" fill="none" fill-rule="evenodd">
        <g id="Group-9" transform="translate(8.000000, 6.000000)">
            <g id="Group-8" transform="translate(105.500000, 61.000000) scale(1, -1) translate(-105.500000, -61.000000) translate(86.000000, 7.000000)" stroke="#000000" stroke-linecap="round" stroke-width="10">
                <line x1="0" y1="0.5" x2="18.972973" y2="0.5" id="Path-4"></line>
                <line x1="0" y1="107.5" x2="39" y2="107.5" id="Path-4"></line>
                <line x1="0" y1="53.5" x2="29.5135135" y2="53.5" id="Path-4"></line>
                <line x1="0" y1="80.5" x2="33.7297297" y2="80.5" id="Path-4"></line>
                <line x1="0" y1="26.5" x2="24.2432432" y2="26.5" id="Path-4"></line>
            </g>
            <g id="Group-7" transform="translate(0.000000, 7.000000)" stroke="#000000" stroke-linecap="round" stroke-width="10">
                <line x1="20.027027" y1="27.5" x2="39" y2="27.5" id="Path-4"></line>
                <line x1="0" y1="81.5" x2="39" y2="81.5" id="Path-4"></line>
                <line x1="9.48648649" y1="0.5" x2="39" y2="0.5" id="Path-4"></line>
                <line x1="5.27027027" y1="107.5" x2="39" y2="107.5" id="Path-4"></line>
                <line x1="14.7567568" y1="54.5" x2="39" y2="54.5" id="Path-4"></line>
            </g>
            <path d="M60.7662512,0 L76,62.5 L60.7662512,124 L51,124 C53.4415628,103.820157 54.6623442,83.3201567 54.6623442,62.5 C54.6623442,41.6798433 53.4415628,20.84651 51,0 L60.7662512,0 Z" id="Path-5" fill="#000000" fill-rule="nonzero"></path>
        </g>
    </g>
</svg>